<?xml version="1.0" encoding="UTF-8"?>
<!--
  Home (Kitchen) scene  –  1920×1080
  Layout: [BEDROOM|MANCAVE] ... kitchen+window ... [GARDEN|LIVINGROOM]
  All doors sit exactly on the floor line (y=780).
  One continuous room — wall, floor, ceiling all uniform.
-->
<svg xmlns="http://www.w3.org/2000/svg" viewBox="0 0 1920 1080">
<defs>
  <!-- ── WALL ── -->
  <linearGradient id="hWall" x1="0" y1="0" x2="0" y2="1">
    <stop offset="0%"   stop-color="#d8d2be"/>
    <stop offset="100%" stop-color="#c8c2ae"/>
  </linearGradient>
  <!-- ── CEILING ── -->
  <linearGradient id="hCeil" x1="0" y1="0" x2="0" y2="1">
    <stop offset="0%"   stop-color="#c2bea8"/>
    <stop offset="100%" stop-color="#d2ceba"/>
  </linearGradient>
  <!-- ── FLOOR TILES ── -->
  <pattern id="hTile" patternUnits="userSpaceOnUse" width="120" height="120">
    <rect width="60"  height="60"  fill="#7a4018"/>
    <rect x="60"      height="60"  fill="#904c20"/>
    <rect y="60"      width="60"   height="60" fill="#904c20"/>
    <rect x="60" y="60" width="60" height="60" fill="#7a4018"/>
    <!-- grout lines -->
    <line x1="60" y1="0"  x2="60" y2="120" stroke="#5a2c0a" stroke-width="2" opacity="0.5"/>
    <line x1="0"  y1="60" x2="120" y2="60" stroke="#5a2c0a" stroke-width="2" opacity="0.5"/>
  </pattern>
  <!-- ── DOOR WOOD ── -->
  <linearGradient id="hDoorWood" x1="0" y1="0" x2="1" y2="0">
    <stop offset="0%"   stop-color="#5a2e0c"/>
    <stop offset="40%"  stop-color="#8b4513"/>
    <stop offset="100%" stop-color="#5a2e0c"/>
  </linearGradient>
  <linearGradient id="hDoorDark" x1="0" y1="0" x2="1" y2="0">
    <stop offset="0%"   stop-color="#3a1c08"/>
    <stop offset="50%"  stop-color="#5e2e0c"/>
    <stop offset="100%" stop-color="#3a1c08"/>
  </linearGradient>
  <!-- ── COUNTER TOP ── -->
  <linearGradient id="hCounterTop" x1="0" y1="0" x2="0" y2="1">
    <stop offset="0%"   stop-color="#303030"/>
    <stop offset="100%" stop-color="#181818"/>
  </linearGradient>
  <!-- ── CABINET BODY ── -->
  <linearGradient id="hCabBody" x1="0" y1="0" x2="0" y2="1">
    <stop offset="0%"   stop-color="#cea864"/>
    <stop offset="100%" stop-color="#a07828"/>
  </linearGradient>
  <!-- ── UPPER CABINET ── -->
  <linearGradient id="hUpperCab" x1="0" y1="0" x2="0" y2="1">
    <stop offset="0%"   stop-color="#c89850"/>
    <stop offset="100%" stop-color="#9a6820"/>
  </linearGradient>
  <!-- ── CHROME (espresso / faucet) ── -->
  <linearGradient id="hChrome" x1="0" y1="0" x2="0" y2="1">
    <stop offset="0%"   stop-color="#d8d8d8"/>
    <stop offset="50%"  stop-color="#a8a8a8"/>
    <stop offset="100%" stop-color="#606060"/>
  </linearGradient>
  <!-- ── WINDOW: outside sky + grass ── -->
  <linearGradient id="hOutside" x1="0" y1="0" x2="0" y2="1">
    <stop offset="0%"   stop-color="#4eb8f0"/>
    <stop offset="50%"  stop-color="#a8dcf8"/>
    <stop offset="65%"  stop-color="#c8ecf8"/>
    <stop offset="66%"  stop-color="#58a830"/>
    <stop offset="85%"  stop-color="#3a8020"/>
    <stop offset="100%" stop-color="#286010"/>
  </linearGradient>
  <!-- ── DOOR FLOOR GLOWS ── -->
  <radialGradient id="gBedroom"   cx="50%" cy="100%" r="70%">
    <stop offset="0%"   stop-color="#8090d8" stop-opacity="0.40"/>
    <stop offset="100%" stop-color="#8090d8" stop-opacity="0"/>
  </radialGradient>
  <radialGradient id="gMancave"   cx="50%" cy="100%" r="70%">
    <stop offset="0%"   stop-color="#50c878" stop-opacity="0.38"/>
    <stop offset="100%" stop-color="#50c878" stop-opacity="0"/>
  </radialGradient>
  <radialGradient id="gGarden"    cx="50%" cy="100%" r="70%">
    <stop offset="0%"   stop-color="#80d050" stop-opacity="0.35"/>
    <stop offset="100%" stop-color="#80d050" stop-opacity="0"/>
  </radialGradient>
  <radialGradient id="gLivingroom" cx="50%" cy="100%" r="70%">
    <stop offset="0%"   stop-color="#e0a040" stop-opacity="0.38"/>
    <stop offset="100%" stop-color="#e0a040" stop-opacity="0"/>
  </radialGradient>
  <!-- ── WINDOW LIGHT SPILL ON FLOOR ── -->
  <radialGradient id="hWinSpill" cx="50%" cy="0%" r="80%">
    <stop offset="0%"   stop-color="#ffe898" stop-opacity="0.20"/>
    <stop offset="100%" stop-color="#ffe898" stop-opacity="0"/>
  </radialGradient>
  <!-- ── CEILING LAMP ── -->
  <radialGradient id="hLampWarm" cx="50%" cy="0%" r="70%">
    <stop offset="0%"   stop-color="#ffe8a0" stop-opacity="0.28"/>
    <stop offset="100%" stop-color="#ffe8a0" stop-opacity="0"/>
  </radialGradient>
  <!-- ── VIGNETTE ── -->
  <radialGradient id="hVig" cx="50%" cy="50%" r="72%">
    <stop offset="0%"   stop-color="#000" stop-opacity="0"/>
    <stop offset="65%"  stop-color="#000" stop-opacity="0"/>
    <stop offset="100%" stop-color="#000" stop-opacity="0.55"/>
  </radialGradient>
  <!-- ── FILTERS ── -->
  <filter id="hShadow" x="-15%" y="-10%" width="130%" height="130%">
    <feDropShadow dx="3" dy="6" stdDeviation="6" flood-opacity="0.45"/>
  </filter>
  <filter id="hShadowSm" x="-10%" y="-10%" width="120%" height="120%">
    <feDropShadow dx="2" dy="3" stdDeviation="3" flood-opacity="0.28"/>
  </filter>
  <filter id="hGlowGreen">
    <feGaussianBlur stdDeviation="5" result="b"/>
    <feMerge><feMergeNode in="b"/><feMergeNode in="SourceGraphic"/></feMerge>
  </filter>
  <!-- ── CANAL SCENE gradients ── -->
  <linearGradient id="hSky" x1="0" y1="0" x2="0" y2="1">
    <stop offset="0%"   stop-color="#5ecbf5"/>
    <stop offset="55%"  stop-color="#a8dcf8"/>
    <stop offset="100%" stop-color="#cceeff"/>
  </linearGradient>
  <linearGradient id="hCanal" x1="0" y1="0" x2="0" y2="1">
    <stop offset="0%"   stop-color="#4a9ec8"/>
    <stop offset="55%"  stop-color="#2e7aaa"/>
    <stop offset="100%" stop-color="#1a567a"/>
  </linearGradient>
  <radialGradient id="hSunGlow" cx="50%" cy="50%" r="50%">
    <stop offset="0%"   stop-color="#ffe878" stop-opacity="0.9"/>
    <stop offset="100%" stop-color="#ffe878" stop-opacity="0"/>
  </radialGradient>
  <!-- Clip to both window panes (muntin excluded automatically by frame on top) -->
  <clipPath id="winClip">
    <rect x="652" y="248" width="292" height="270"/>
    <rect x="966" y="248" width="292" height="270"/>
  </clipPath>
</defs>

<!-- ═══════════════════════════════════════════════════════
     BACKGROUND: ONE CONTINUOUS ROOM
     Ceiling  y=0–80   Wall  y=80–780   Floor  y=780–1080
     ═══════════════════════════════════════════════════════ -->

<!-- Ceiling -->
<rect x="0" y="0"   width="1920" height="220" fill="url(#hCeil)"/>
<!-- Wall -->
<rect x="0" y="220" width="1920" height="528" fill="url(#hWall)"/>
<!-- Floor -->
<rect x="0" y="780" width="1920" height="300" fill="url(#hTile)"/>

<!-- Ceiling–wall cornice line -->
<rect x="0" y="217" width="1920" height="8"   fill="#b0aa92" rx="1"/>
<!-- Floor skirting -->
<rect x="0" y="777" width="1920" height="10"  fill="#5a2e0a" rx="1"/>
<!-- Baseboard -->
<rect x="0" y="748" width="1920" height="32"  fill="#c4b07a" rx="2"/>
<rect x="0" y="748" width="1920" height="4"   fill="#a89060" opacity="0.6"/>

<!-- Ceiling warm lamp wash -->
<rect x="0" y="0" width="1920" height="780" fill="url(#hLampWarm)"/>
<!-- Window spill on floor (centre) -->
<rect x="480" y="780" width="960" height="300" fill="url(#hWinSpill)"/>

<!-- ═══════════════════════════════════════════════════════
     CEILING PENDANT
     ═══════════════════════════════════════════════════════ -->
<line x1="960" y1="0" x2="960" y2="218" stroke="#888" stroke-width="3"/>
<rect x="944" y="0"   width="32" height="14" fill="#c0b888"/>
<ellipse cx="960" cy="232" rx="58" ry="12" fill="#e8e0c0" stroke="#b0a868" stroke-width="2"/>
<ellipse cx="960" cy="242" rx="76" ry="16" fill="#f5f0d8" opacity="0.88" filter="url(#hShadowSm)"/>

<!-- Wall clock (centre above window) -->
<circle cx="960" cy="310" r="46" fill="#f2eed8" stroke="#5a3010" stroke-width="3.5"/>
<circle cx="960" cy="310" r="40" fill="#faf8f0" stroke="#8a6028" stroke-width="1.5"/>
<line x1="960" y1="272" x2="960" y2="280" stroke="#333" stroke-width="2.5"/>
<line x1="960" y1="339" x2="960" y2="347" stroke="#333" stroke-width="2.5"/>
<line x1="920" y1="310" x2="928" y2="310" stroke="#333" stroke-width="2.5"/>
<line x1="991" y1="310" x2="999" y2="310" stroke="#333" stroke-width="2.5"/>
<line x1="960" y1="310" x2="945" y2="292" stroke="#222" stroke-width="3.5" stroke-linecap="round"/>
<line x1="960" y1="310" x2="978" y2="310" stroke="#222" stroke-width="2.5" stroke-linecap="round"/>
<circle cx="960" cy="310" r="4" fill="#333"/>

<!-- ═══════════════════════════════════════════════════════
     LEFT DOORS  —  BEDROOM (x=60)  &  MANCAVE (x=290)
     Door: w=170 h=370  top=y=410  bottom=y=780
     ═══════════════════════════════════════════════════════ -->

<!-- ── BEDROOM DOOR ── -->
<!-- Door recess shadow -->
<rect x="52"  y="404" width="186" height="380" rx="6" fill="#a8a490" filter="url(#hShadow)"/>
<!-- Door frame -->
<rect x="55"  y="407" width="180" height="374" rx="5" fill="none" stroke="#7a4820" stroke-width="8"/>
<!-- Door panel -->
<rect x="63"  y="414" width="164" height="360" rx="3" fill="url(#hDoorWood)"/>
<!-- Panel insets -->
<rect x="74"  y="425" width="142" height="140" rx="3" fill="none" stroke="#4a2408" stroke-width="2" opacity="0.55"/>
<rect x="74"  y="578" width="142" height="184" rx="3" fill="none" stroke="#4a2408" stroke-width="2" opacity="0.55"/>
<rect x="82"  y="433" width="126" height="124" rx="2" fill="#6a3410" opacity="0.18"/>
<rect x="82"  y="586" width="126" height="168" rx="2" fill="#6a3410" opacity="0.16"/>
<!-- Door knob -->
<circle cx="208" cy="610" r="11" fill="#c0a030" stroke="#a08020" stroke-width="2"/>
<circle cx="208" cy="610" r="5.5" fill="#e0c040" opacity="0.75"/>
<!-- Floor glow footprint -->
<ellipse cx="145" cy="782" rx="90" ry="18" fill="url(#gBedroom)"/>
<!-- Label -->
<text x="145" y="738" text-anchor="middle" font-family="Georgia,serif" font-size="16" fill="#3a1e08" opacity="0.65" letter-spacing="1.5">SLAAPKAMER</text>
<text x="145" y="716" text-anchor="middle" font-size="24" opacity="0.72">🌙</text>

<!-- ── MANCAVE DOOR ── -->
<rect x="282" y="404" width="186" height="380" rx="6" fill="#9e9e8c" filter="url(#hShadow)"/>
<rect x="285" y="407" width="180" height="374" rx="5" fill="none" stroke="#622e0a" stroke-width="8"/>
<rect x="293" y="414" width="164" height="360" rx="3" fill="url(#hDoorDark)"/>
<rect x="304" y="425" width="142" height="140" rx="3" fill="none" stroke="#3a1808" stroke-width="2" opacity="0.55"/>
<rect x="304" y="578" width="142" height="184" rx="3" fill="none" stroke="#3a1808" stroke-width="2" opacity="0.55"/>
<!-- Green LED stripe hint -->
<rect x="304" y="578" width="142" height="4"   rx="2" fill="#40ff80" opacity="0.40"/>
<text x="375" y="510" text-anchor="middle" font-size="48" opacity="0.18">💀</text>
<rect x="312" y="586" width="126" height="168" rx="2" fill="#1c3822" opacity="0.22"/>
<!-- Door knob (dark metal) -->
<circle cx="293" cy="610" r="11" fill="#585858" stroke="#383838" stroke-width="2"/>
<circle cx="293" cy="610" r="5.5" fill="#909090" opacity="0.70"/>
<ellipse cx="375" cy="782" rx="90" ry="18" fill="url(#gMancave)"/>
<text x="375" y="738" text-anchor="middle" font-family="Georgia,serif" font-size="16" fill="#253828" opacity="0.65" letter-spacing="1.5">MANCAVE</text>
<text x="375" y="716" text-anchor="middle" font-size="24" opacity="0.72">🖥</text>

<!-- ── LEFT WALL between doors and kitchen ── -->
<!-- (just the bare wall – already rendered by background) -->

<!-- ═══════════════════════════════════════════════════════
     KITCHEN  x=480–1440
     Window: x=640 y=100 w=640 h=460  (bottom y=560)
     Counter: x=480 y=640 w=960 h=140 (top y=640, bottom sits on baseboard)
     ═══════════════════════════════════════════════════════ -->

<!-- ── UPPER CABINETS (flanking window) ── -->
<!-- Left upper cabinet -->
<rect x="484" y="230" width="148" height="180" rx="3" fill="url(#hUpperCab)" stroke="#9a7028" stroke-width="2" filter="url(#hShadowSm)"/>
<rect x="490" y="236" width="136" height="82" rx="2" fill="none" stroke="#8a5a18" stroke-width="1.5" opacity="0.60"/>
<rect x="490" y="326" width="136" height="76" rx="2" fill="none" stroke="#8a5a18" stroke-width="1.5" opacity="0.60"/>
<circle cx="550" cy="278" r="5" fill="#b07828" stroke="#8a5a18" stroke-width="1"/>
<circle cx="550" cy="366" r="5" fill="#b07828" stroke="#8a5a18" stroke-width="1"/>
<!-- Under-cabinet light left -->
<rect x="484" y="408" width="148" height="5" rx="2" fill="#ffe090" opacity="0.60"/>

<!-- Right upper cabinet -->
<rect x="1288" y="230" width="148" height="180" rx="3" fill="url(#hUpperCab)" stroke="#9a7028" stroke-width="2" filter="url(#hShadowSm)"/>
<rect x="1294" y="236" width="136" height="82" rx="2" fill="none" stroke="#8a5a18" stroke-width="1.5" opacity="0.60"/>
<rect x="1294" y="326" width="136" height="76" rx="2" fill="none" stroke="#8a5a18" stroke-width="1.5" opacity="0.60"/>
<circle cx="1374" cy="278" r="5" fill="#b07828" stroke="#8a5a18" stroke-width="1"/>
<circle cx="1374" cy="366" r="5" fill="#b07828" stroke="#8a5a18" stroke-width="1"/>
<!-- Under-cabinet light right -->
<rect x="1288" y="408" width="148" height="5" rx="2" fill="#ffe090" opacity="0.60"/>

<!-- ── WINDOW ── -->
<!-- Outer recess / reveal -->
<rect x="632" y="232" width="656" height="300" rx="8" fill="#9ab8c8" filter="url(#hShadow)"/>
<!-- Window sill top -->
<rect x="620" y="225" width="680" height="22"  rx="5" fill="#7a4820" stroke="#5a3010" stroke-width="2"/>
<!-- Frame -->
<rect x="640" y="240" width="640" height="286" rx="5" fill="none" stroke="#8b5a28" stroke-width="12"/>
<!-- ── OUTSIDE WINDOW — animated Dutch canal scene ── -->
<g clip-path="url(#winClip)">
  <!-- Sky -->
  <rect x="640" y="248" width="640" height="270" fill="url(#hSky)"/>

  <!-- Sun glow halo -->
  <circle cx="722" cy="285" r="56" fill="url(#hSunGlow)">
    <animate attributeName="opacity" values="0.7;0.9;0.7" dur="5s" repeatCount="indefinite"/>
  </circle>
  <!-- Sun disc -->
  <circle cx="722" cy="285" r="30" fill="#ffe060">
    <animate attributeName="r" values="29;31;29" dur="5s" repeatCount="indefinite"/>
  </circle>
  <!-- Sun corona ring -->
  <circle cx="722" cy="285" r="38" fill="none" stroke="#ffe06040" stroke-width="4"/>

  <!-- Cloud 1 — large, slow -->
  <g opacity="0.88">
    <animateTransform attributeName="transform" type="translate" from="-620 0" to="680 0" dur="55s" repeatCount="indefinite"/>
    <ellipse cx="900" cy="270" rx="72" ry="22" fill="#eef6ff"/>
    <ellipse cx="950" cy="257" rx="52" ry="21" fill="#f0f8ff"/>
    <ellipse cx="856" cy="277" rx="42" ry="17" fill="#eef6ff"/>
    <ellipse cx="972" cy="270" rx="36" ry="16" fill="#eef6ff"/>
  </g>

  <!-- Cloud 2 — medium, faster -->
  <g opacity="0.75">
    <animateTransform attributeName="transform" type="translate" from="-900 0" to="680 0" dur="40s" repeatCount="indefinite"/>
    <ellipse cx="1060" cy="293" rx="58" ry="17" fill="#e8f4ff"/>
    <ellipse cx="1100" cy="281" rx="42" ry="17" fill="#eef6ff"/>
    <ellipse cx="1022" cy="297" rx="36" ry="14" fill="#e8f4ff"/>
  </g>

  <!-- Cloud 3 — small, wispy -->
  <g opacity="0.58">
    <animateTransform attributeName="transform" type="translate" from="-300 0" to="680 0" dur="70s" repeatCount="indefinite"/>
    <ellipse cx="1160" cy="266" rx="40" ry="13" fill="#f0f8ff"/>
    <ellipse cx="1192" cy="258" rx="30" ry="12" fill="#f4faff"/>
  </g>

  <!-- Distant horizon treeline -->
  <rect x="640" y="415" width="640" height="22" fill="#3a7828" opacity="0.8"/>
  <!-- Tree canopy bumps -->
  <ellipse cx="670"  cy="413" rx="28" ry="17" fill="#2d6020"/>
  <ellipse cx="710"  cy="408" rx="34" ry="21" fill="#3a7828"/>
  <ellipse cx="756"  cy="411" rx="27" ry="16" fill="#2d6020"/>
  <ellipse cx="800"  cy="406" rx="32" ry="20" fill="#4a8a30"/>
  <ellipse cx="840"  cy="413" rx="24" ry="15" fill="#2d6020"/>
  <ellipse cx="880"  cy="409" rx="30" ry="18" fill="#3a7828"/>
  <ellipse cx="960"  cy="411" rx="28" ry="17" fill="#3a7828"/>
  <ellipse cx="1004" cy="406" rx="35" ry="21" fill="#2d6020"/>
  <ellipse cx="1050" cy="410" rx="29" ry="16" fill="#4a8a30"/>
  <ellipse cx="1090" cy="407" rx="27" ry="19" fill="#2d6020"/>
  <ellipse cx="1132" cy="413" rx="32" ry="16" fill="#3a7828"/>
  <ellipse cx="1172" cy="408" rx="28" ry="18" fill="#2d6020"/>
  <ellipse cx="1212" cy="412" rx="33" ry="20" fill="#4a8a30"/>
  <ellipse cx="1248" cy="409" rx="26" ry="16" fill="#2d6020"/>
  <!-- Windmill silhouette far right -->
  <rect x="1228" y="378" width="6"  height="38" fill="#2a5018" opacity="0.7"/>
  <ellipse cx="1231" cy="377" rx="14" ry="5" fill="#2a5018" opacity="0.6"/>
  <line x1="1231" y1="372" x2="1218" y2="358" stroke="#2a5018" stroke-width="2" opacity="0.6"/>
  <line x1="1231" y1="372" x2="1244" y2="358" stroke="#2a5018" stroke-width="2" opacity="0.6"/>
  <line x1="1231" y1="372" x2="1220" y2="388" stroke="#2a5018" stroke-width="2" opacity="0.6"/>
  <line x1="1231" y1="372" x2="1242" y2="388" stroke="#2a5018" stroke-width="2" opacity="0.6"/>

  <!-- Canal bank / grass -->
  <rect x="640" y="432" width="640" height="26" fill="#4a9030"/>
  <rect x="640" y="452" width="640" height="6"  fill="#2a6018" opacity="0.5"/>

  <!-- Canal water -->
  <rect x="640" y="458" width="640" height="60" fill="url(#hCanal)"/>

  <!-- Water shimmer lines moving right -->
  <g opacity="0.18">
    <animateTransform attributeName="transform" type="translate" from="0 0" to="48 0" dur="4s" repeatCount="indefinite"/>
    <line x1="590" y1="467" x2="1280" y2="467" stroke="#ffffff" stroke-width="1.5"/>
    <line x1="590" y1="479" x2="1280" y2="479" stroke="#ffffff" stroke-width="1"/>
    <line x1="590" y1="492" x2="1280" y2="492" stroke="#ffffff" stroke-width="1.5"/>
    <line x1="590" y1="505" x2="1280" y2="505" stroke="#ffffff" stroke-width="1"/>
  </g>
  <!-- Water shimmer lines moving left (offset timing) -->
  <g opacity="0.10">
    <animateTransform attributeName="transform" type="translate" from="48 0" to="0 0" dur="5.5s" repeatCount="indefinite"/>
    <line x1="590" y1="473" x2="1280" y2="473" stroke="#aaddff" stroke-width="1"/>
    <line x1="590" y1="486" x2="1280" y2="486" stroke="#aaddff" stroke-width="1.5"/>
    <line x1="590" y1="499" x2="1280" y2="499" stroke="#aaddff" stroke-width="1"/>
  </g>
  <!-- Sun reflection in canal -->
  <ellipse cx="722" cy="488" rx="55" ry="10" fill="#ffe060" opacity="0.18">
    <animate attributeName="opacity" values="0.14;0.26;0.14" dur="3.5s" repeatCount="indefinite"/>
    <animate attributeName="rx" values="50;62;50" dur="3.5s" repeatCount="indefinite"/>
  </ellipse>

  <!-- Dutch canal boat (moves right→left) -->
  <g>
    <animateTransform attributeName="transform" type="translate" from="640 0" to="-480 0" dur="48s" repeatCount="indefinite"/>
    <!-- Hull -->
    <polygon points="750,478 1000,478 1022,494 728,494" fill="#7a3c10"/>
    <rect x="758" y="466" width="220" height="13" rx="2" fill="#9a4e1a"/>
    <!-- Cabin superstructure -->
    <rect x="788" y="440" width="160" height="28" rx="3" fill="#c8a060"/>
    <!-- Cabin windows -->
    <rect x="794" y="445" width="28" height="17" rx="2" fill="#7ab8e8" opacity="0.75"/>
    <rect x="836" y="445" width="28" height="17" rx="2" fill="#7ab8e8" opacity="0.75"/>
    <rect x="878" y="445" width="28" height="17" rx="2" fill="#7ab8e8" opacity="0.75"/>
    <rect x="920" y="445" width="22" height="17" rx="2" fill="#7ab8e8" opacity="0.60"/>
    <!-- Mast -->
    <line x1="808" y1="440" x2="808" y2="412" stroke="#4a2808" stroke-width="3"/>
    <!-- Dutch flag -->
    <rect x="808" y="412" width="22" height="8"  fill="#ae1c28"/>
    <rect x="808" y="420" width="22" height="8"  fill="#ffffff"/>
    <rect x="808" y="428" width="22" height="7"  fill="#21468b"/>
    <!-- Bow line -->
    <line x1="728" y1="486" x2="760" y2="484" stroke="#8a6030" stroke-width="2" opacity="0.55"/>
    <!-- Stern wake -->
    <ellipse cx="1040" cy="488" rx="28" ry="5" fill="#78b8d8" opacity="0.35"/>
    <ellipse cx="1066" cy="490" rx="18" ry="3" fill="#78b8d8" opacity="0.22"/>
  </g>

  <!-- Birds — group 1: pair drifting right to left -->
  <g>
    <animateTransform attributeName="transform" type="translate" from="640 0" to="-100 0" dur="22s" repeatCount="indefinite"/>
    <path d="M 680 275 Q 686 269 692 275" fill="none" stroke="#334455" stroke-width="2.5" stroke-linecap="round"/>
    <path d="M 698 282 Q 703 277 708 282" fill="none" stroke="#334455" stroke-width="2.2" stroke-linecap="round"/>
  </g>
  <!-- Birds — group 2: three birds, slower and higher -->
  <g>
    <animateTransform attributeName="transform" type="translate" from="680 0" to="-100 0" dur="34s" repeatCount="indefinite"/>
    <path d="M 820 262 Q 825 257 830 262" fill="none" stroke="#445566" stroke-width="2" stroke-linecap="round"/>
    <path d="M 838 268 Q 843 263 848 268" fill="none" stroke="#445566" stroke-width="2" stroke-linecap="round"/>
    <path d="M 810 272 Q 814 268 818 272" fill="none" stroke="#445566" stroke-width="1.8" stroke-linecap="round"/>
  </g>
  <!-- Birds — group 3: lone bird, mid-height -->
  <g>
    <animateTransform attributeName="transform" type="translate" from="-200 0" to="700 0" dur="28s" repeatCount="indefinite"/>
    <path d="M 700 308 Q 706 303 712 308" fill="none" stroke="#3a4d5c" stroke-width="2.2" stroke-linecap="round"/>
  </g>
</g>
<!-- Centre muntin vertical -->
<rect x="944" y="240" width="22" height="286" fill="#8b5a28"/>
<!-- Horizontal cross bar -->
<rect x="640" y="376" width="640" height="18"  fill="#8b5a28"/>
<!-- Glass glare streaks -->
<rect x="656" y="252" width="70" height="110" rx="3" fill="#ffffff" opacity="0.10"/>
<rect x="970" y="252" width="70" height="110" rx="3" fill="#ffffff" opacity="0.10"/>
<!-- Window sill bottom ledge -->
<rect x="620" y="520" width="680" height="24"  rx="5" fill="#9a6030" stroke="#7a4820" stroke-width="2"/>
<!-- Plants on sill -->
<text x="680"  y="532" text-anchor="middle" font-size="28" opacity="0.85">🌱</text>
<text x="1240" y="532" text-anchor="middle" font-size="28" opacity="0.85">🌿</text>
<!-- Morning sunbeam through window left pane -->
<polygon points="652,248 944,248 860,780 560,780" fill="#ffe890" opacity="0.04"/>
<!-- Sunbeam right pane -->
<polygon points="966,248 1258,248 1400,780 1060,780" fill="#ffe890" opacity="0.04"/>

<!-- ── BASE CABINETS + COUNTERTOP (x=484 to x=1436) ── -->
<!-- Cabinet body -->
<rect x="484" y="648" width="952" height="132" fill="url(#hCabBody)" filter="url(#hShadowSm)"/>
<!-- Cabinet door verticals -->
<line x1="643"  y1="648" x2="643"  y2="775" stroke="#9a6018" stroke-width="2.5" opacity="0.55"/>
<line x1="802"  y1="648" x2="802"  y2="775" stroke="#9a6018" stroke-width="2.5" opacity="0.55"/>
<line x1="961"  y1="648" x2="961"  y2="775" stroke="#9a6018" stroke-width="2.5" opacity="0.55"/>
<line x1="1120" y1="648" x2="1120" y2="775" stroke="#9a6018" stroke-width="2.5" opacity="0.55"/>
<line x1="1279" y1="648" x2="1279" y2="775" stroke="#9a6018" stroke-width="2.5" opacity="0.55"/>
<!-- Cabinet handles -->
<rect x="544"  y="706" width="38" height="7" rx="3.5" fill="#9a7828" opacity="0.75"/>
<rect x="703"  y="706" width="38" height="7" rx="3.5" fill="#9a7828" opacity="0.75"/>
<rect x="862"  y="706" width="38" height="7" rx="3.5" fill="#9a7828" opacity="0.75"/>
<rect x="1021" y="706" width="38" height="7" rx="3.5" fill="#9a7828" opacity="0.75"/>
<rect x="1180" y="706" width="38" height="7" rx="3.5" fill="#9a7828" opacity="0.75"/>
<rect x="1339" y="706" width="38" height="7" rx="3.5" fill="#9a7828" opacity="0.75"/>
<!-- Countertop -->
<rect x="480" y="638" width="960" height="30"  rx="3" fill="url(#hCounterTop)"/>
<rect x="480" y="638" width="960" height="5"   fill="#484848" opacity="0.55"/>
<!-- Counter edge front -->
<rect x="480" y="665" width="960" height="6"   fill="#222" opacity="0.35"/>

<!-- ── SINK (centred under window, x=880) ── -->
<rect x="842" y="638" width="236" height="24" rx="2" fill="#686868"/>
<rect x="852" y="642" width="98"  height="16" rx="2" fill="#484848"/>
<rect x="962" y="642" width="98"  height="16" rx="2" fill="#484848"/>
<!-- Faucet -->
<rect  x="946" y="610" width="16" height="32" rx="5"  fill="url(#hChrome)"/>
<ellipse cx="954" cy="610" rx="24" ry="8"    fill="url(#hChrome)"/>
<!-- Water glint -->
<ellipse cx="896" cy="640" rx="6" ry="2.5"   fill="#b8d8ec" opacity="0.50"/>
<ellipse cx="1012" cy="640" rx="6" ry="2.5"  fill="#b8d8ec" opacity="0.50"/>

<!-- ── ESPRESSO MACHINE (right end of counter) ── -->
<!-- Body -->
<rect x="1298" y="528" width="162" height="114" rx="8" fill="url(#hChrome)" filter="url(#hShadow)"/>
<rect x="1306" y="536" width="146" height="98"  rx="6" fill="#b4b4b4"/>
<!-- Water tank top -->
<rect x="1326" y="500" width="82"  height="36"  rx="4" fill="#ccd4dc" stroke="#909090" stroke-width="2" opacity="0.90"/>
<!-- Portafilter spout -->
<rect x="1348" y="638" width="40"  height="22"  rx="4" fill="#686868"/>
<ellipse cx="1368" cy="660" rx="28" ry="8" fill="#505050"/>
<!-- Drip tray -->
<rect x="1308" y="636" width="142" height="10"  rx="2" fill="#888"/>
<!-- LED green -->
<circle cx="1430" cy="558" r="6"   fill="#00e060" opacity="0.90" filter="url(#hGlowGreen)"/>
<!-- Buttons row -->
<circle cx="1325" cy="565" r="8" fill="#3a3a3a" stroke="#5a5a5a" stroke-width="1.5"/>
<circle cx="1350" cy="565" r="8" fill="#3a3a3a" stroke="#5a5a5a" stroke-width="1.5"/>
<circle cx="1375" cy="565" r="8" fill="#3a3a3a" stroke="#5a5a5a" stroke-width="1.5"/>
<!-- Steam wisps -->
<path d="M 1348,500 Q 1344,480 1348,460 Q 1352,440 1348,420" stroke="#d0d0d0" stroke-width="2" fill="none" opacity="0.20" stroke-linecap="round"/>
<path d="M 1365,497 Q 1361,478 1365,458 Q 1369,438 1365,418" stroke="#d0d0d0" stroke-width="2" fill="none" opacity="0.16" stroke-linecap="round"/>

<!-- ── COFFEE MUG ── -->
<rect   x="1476" y="608" width="54"  height="38" rx="5" fill="#e8e0d0" stroke="#c0b090" stroke-width="2"/>
<path   d="M 1530,620 Q 1554,620 1554,630 Q 1554,640 1530,640" stroke="#c0b090" stroke-width="2.5" fill="none"/>
<rect   x="1480" y="614" width="46"  height="30" rx="3" fill="#3a1e08" opacity="0.82"/>

<!-- Fruit bowl left of counter -->
<ellipse cx="566" cy="640" rx="44" ry="12" fill="#7a4c18" opacity="0.80"/>
<text x="564" y="638" text-anchor="middle" font-size="30">🍎</text>
<!-- Small cookbook -->
<rect x="700" y="610" width="58" height="34" rx="2" fill="#8a3020"/>
<rect x="703" y="613" width="52" height="28" rx="1" fill="#a04030" opacity="0.75"/>
<line x1="729" y1="613" x2="729" y2="641" stroke="#7a2818" stroke-width="2" opacity="0.5"/>

<!-- ═══════════════════════════════════════════════════════
     RIGHT DOORS  —  GARDEN (x=1470)  &  LIVINGROOM (x=1700)
     ═══════════════════════════════════════════════════════ -->

<!-- ── GARDEN DOOR (glass panels) ── -->
<rect x="1462" y="404" width="186" height="380" rx="6" fill="#a8a490" filter="url(#hShadow)"/>
<rect x="1465" y="407" width="180" height="374" rx="5" fill="none" stroke="#7a4820" stroke-width="8"/>
<rect x="1473" y="414" width="164" height="360" rx="3" fill="url(#hDoorWood)"/>
<!-- Glass panes top half -->
<rect x="1477" y="418" width="70"  height="192" rx="3" fill="#90cce8" opacity="0.45"/>
<rect x="1563" y="418" width="70"  height="192" rx="3" fill="#90cce8" opacity="0.45"/>
<!-- Outside glimpse -->
<rect x="1479" y="420" width="66"  height="188" rx="2" fill="url(#hOutside)" opacity="0.65"/>
<rect x="1565" y="420" width="66"  height="188" rx="2" fill="url(#hOutside)" opacity="0.65"/>
<!-- Muntins -->
<line x1="1513" y1="418" x2="1513" y2="610" stroke="#7a4820" stroke-width="4"/>
<line x1="1599" y1="418" x2="1599" y2="610" stroke="#7a4820" stroke-width="4"/>
<line x1="1477" y1="514" x2="1547" y2="514" stroke="#7a4820" stroke-width="4"/>
<line x1="1563" y1="514" x2="1633" y2="514" stroke="#7a4820" stroke-width="4"/>
<!-- Lower panel -->
<rect x="1481" y="618" width="148" height="148" rx="2" fill="#70380c" opacity="0.20"/>
<rect x="1473" y="614" width="164" height="152" rx="3" fill="none" stroke="#4a2408" stroke-width="2" opacity="0.45"/>
<!-- Door knob -->
<circle cx="1473" cy="610" r="11" fill="#c0a030" stroke="#a08020" stroke-width="2"/>
<circle cx="1473" cy="610" r="5.5" fill="#e0c040" opacity="0.75"/>
<ellipse cx="1555" cy="782" rx="90" ry="18" fill="url(#gGarden)"/>
<text x="1555" y="738" text-anchor="middle" font-family="Georgia,serif" font-size="16" fill="#2a5018" opacity="0.65" letter-spacing="1.5">TUIN</text>
<text x="1555" y="716" text-anchor="middle" font-size="24" opacity="0.72">🌿</text>

<!-- ── LIVINGROOM DOOR ── -->
<rect x="1692" y="404" width="186" height="380" rx="6" fill="#a8a490" filter="url(#hShadow)"/>
<rect x="1695" y="407" width="180" height="374" rx="5" fill="none" stroke="#7a4820" stroke-width="8"/>
<rect x="1703" y="414" width="164" height="360" rx="3" fill="url(#hDoorWood)"/>
<rect x="1714" y="425" width="142" height="140" rx="3" fill="none" stroke="#4a2408" stroke-width="2" opacity="0.55"/>
<rect x="1714" y="578" width="142" height="184" rx="3" fill="none" stroke="#4a2408" stroke-width="2" opacity="0.55"/>
<!-- TV screen hint in upper panel -->
<rect x="1724" y="434" width="122" height="84"  rx="5" fill="#111" opacity="0.28"/>
<rect x="1728" y="438" width="114" height="76"  rx="3" fill="#181828" opacity="0.32"/>
<rect x="1722" y="586" width="126" height="168" rx="2" fill="#a07828" opacity="0.15"/>
<!-- Door knob -->
<circle cx="1703" cy="610" r="11" fill="#c0a030" stroke="#a08020" stroke-width="2"/>
<circle cx="1703" cy="610" r="5.5" fill="#e0c040" opacity="0.75"/>
<ellipse cx="1785" cy="782" rx="90" ry="18" fill="url(#gLivingroom)"/>
<text x="1785" y="738" text-anchor="middle" font-family="Georgia,serif" font-size="16" fill="#3a1e08" opacity="0.65" letter-spacing="1.5">WOONKAMER</text>
<text x="1785" y="716" text-anchor="middle" font-size="24" opacity="0.72">📺</text>

<!-- ═══════════════════════════════════════════════════════
     FINISHING TOUCHES
     ═══════════════════════════════════════════════════════ -->

<!-- Small framed photo on left wall strip -->
<rect x="480" y="260" width="56" height="74" rx="3" fill="#5a3010" stroke="#4a2008" stroke-width="3"/>
<rect x="485" y="205" width="46" height="64" rx="2" fill="#88b0c0" opacity="0.75"/>

<!-- Calendar on right wall strip between doors -->
<rect x="1440" y="260" width="72" height="88" rx="3" fill="#f0f0e8" stroke="#9a8058" stroke-width="2"/>
<rect x="1441" y="260" width="70" height="22" rx="2" fill="#b03020"/>
<text x="1476" y="277" text-anchor="middle" font-family="sans-serif" font-size="13" fill="#fff">MAR</text>
<text x="1476" y="322" text-anchor="middle" font-family="sans-serif" font-size="30" font-weight="bold" fill="#333">4</text>

<!-- Vignette -->
<rect x="0" y="0" width="1920" height="1080" fill="url(#hVig)"/>
</svg>
