<svg xmlns="http://www.w3.org/2000/svg" viewBox="0 0 1920 1080">
  <defs>
    <!-- Room background gradient -->
    <linearGradient id="roomBg" x1="0" y1="0" x2="0" y2="1">
      <stop offset="0%" stop-color="#04060c"/>
      <stop offset="100%" stop-color="#090e18"/>
    </linearGradient>
    <!-- Desk surface -->
    <linearGradient id="deskGrad" x1="0" y1="0" x2="0" y2="1">
      <stop offset="0%" stop-color="#1a1208"/>
      <stop offset="100%" stop-color="#0d0b06"/>
    </linearGradient>
    <!-- Laptop lid & body -->
    <linearGradient id="lidGrad" x1="0" y1="0" x2="0" y2="1">
      <stop offset="0%" stop-color="#1c1c20"/>
      <stop offset="100%" stop-color="#111115"/>
    </linearGradient>
    <!-- Screen background (Kali) -->
    <linearGradient id="screenBg" x1="0" y1="0" x2="0" y2="1">
      <stop offset="0%" stop-color="#040810"/>
      <stop offset="100%" stop-color="#060c18"/>
    </linearGradient>
    <!-- Screen glow (cyan) -->
    <radialGradient id="screenGlow" cx="50%" cy="50%" r="60%">
      <stop offset="0%" stop-color="#00d4ff" stop-opacity="0.12"/>
      <stop offset="70%" stop-color="#00d4ff" stop-opacity="0.04"/>
      <stop offset="100%" stop-color="#000000" stop-opacity="0"/>
    </radialGradient>
    <!-- Room ambient from screen -->
    <radialGradient id="ambientGlow" cx="50%" cy="42%" r="55%">
      <stop offset="0%" stop-color="#00aaff" stop-opacity="0.07"/>
      <stop offset="100%" stop-color="#000000" stop-opacity="0"/>
    </radialGradient>
    <!-- Keyboard gradient -->
    <linearGradient id="kbGrad" x1="0" y1="0" x2="0" y2="1">
      <stop offset="0%" stop-color="#1a1a1e"/>
      <stop offset="100%" stop-color="#101012"/>
    </linearGradient>
    <!-- Trackpad -->
    <linearGradient id="tpadGrad" x1="0" y1="0" x2="0" y2="1">
      <stop offset="0%" stop-color="#161618"/>
      <stop offset="100%" stop-color="#0e0e10"/>
    </linearGradient>
    <!-- Coffee cup gradient -->
    <linearGradient id="mugGrad" x1="0" y1="0" x2="0" y2="1">
      <stop offset="0%" stop-color="#2a2a30"/>
      <stop offset="100%" stop-color="#1a1a1e"/>
    </linearGradient>
    <!-- Sticker red glow -->
    <radialGradient id="stickerGlow" cx="50%" cy="50%" r="50%">
      <stop offset="0%" stop-color="#ff3300" stop-opacity="0.5"/>
      <stop offset="100%" stop-color="#ff3300" stop-opacity="0"/>
    </radialGradient>

    <!-- Filters -->
    <filter id="glow4">
      <feGaussianBlur stdDeviation="4" result="g"/>
      <feMerge><feMergeNode in="g"/><feMergeNode in="SourceGraphic"/></feMerge>
    </filter>
    <filter id="glow8">
      <feGaussianBlur stdDeviation="8" result="g"/>
      <feMerge><feMergeNode in="g"/><feMergeNode in="SourceGraphic"/></feMerge>
    </filter>
    <filter id="glow16">
      <feGaussianBlur stdDeviation="16" result="g"/>
      <feMerge><feMergeNode in="g"/><feMergeNode in="SourceGraphic"/></feMerge>
    </filter>
    <filter id="softBlur">
      <feGaussianBlur stdDeviation="2"/>
    </filter>
    <filter id="screenBlur">
      <feGaussianBlur stdDeviation="6"/>
    </filter>

    <!-- Scanline pattern -->
    <pattern id="scanlines" width="2" height="4" patternUnits="userSpaceOnUse">
      <line x1="0" y1="0" x2="2" y2="0" stroke="#000" stroke-width="1.5" opacity="0.15"/>
    </pattern>

    <!-- Terminal text clip -->
    <clipPath id="screenClip">
      <rect x="552" y="108" width="816" height="526"/>
    </clipPath>
  </defs>

  <style>
    @keyframes cursorBlink {
      0%, 49% { opacity: 1; }
      50%, 100% { opacity: 0; }
    }
    @keyframes termScroll {
      0%   { transform: translateY(0); }
      100% { transform: translateY(-40px); }
    }
    @keyframes steamRise {
      0%   { transform: translateY(0px) scaleX(1); opacity: 0.5; }
      100% { transform: translateY(-30px) scaleX(1.4); opacity: 0; }
    }
    @keyframes ledPulse {
      0%, 100% { opacity: 0.7; }
      50%       { opacity: 1.0; }
    }
    .cursor { animation: cursorBlink 1.1s step-end infinite; }
    .term-scroll { animation: termScroll 8s linear infinite; }
    .steam { animation: steamRise 3s ease-out infinite; }
    .steam2 { animation: steamRise 3s ease-out 1.2s infinite; }
    .led-power { animation: ledPulse 2.5s ease-in-out infinite; }
  </style>

  <!-- ── ROOM BACKGROUND ── -->
  <rect width="1920" height="1080" fill="url(#roomBg)"/>

  <!-- Ambient screen glow on wall -->
  <rect width="1920" height="1080" fill="url(#ambientGlow)"/>

  <!-- Back wall subtle texture lines -->
  <line x1="0" y1="340" x2="1920" y2="340" stroke="#0a0f1a" stroke-width="1"/>
  <line x1="0" y1="380" x2="1920" y2="380" stroke="#0a0f1a" stroke-width="0.5"/>

  <!-- Shelves on wall (blurred background) -->
  <g opacity="0.25" filter="url(#softBlur)">
    <!-- left shelf -->
    <rect x="80" y="180" width="280" height="12" fill="#2a1f10" rx="2"/>
    <!-- books on shelf -->
    <rect x="88" y="110" width="22" height="70" fill="#1a3a5c" rx="1"/>
    <rect x="112" y="120" width="18" height="60" fill="#3a1a1a" rx="1"/>
    <rect x="132" y="105" width="25" height="75" fill="#1a3a1a" rx="1"/>
    <rect x="160" y="118" width="20" height="62" fill="#3a2a1a" rx="1"/>
    <rect x="183" y="112" width="16" height="68" fill="#2a1a3a" rx="1"/>
    <rect x="202" y="122" width="22" height="58" fill="#1a2a3a" rx="1"/>
    <rect x="227" y="108" width="19" height="72" fill="#3a3a1a" rx="1"/>
    <!-- right shelf -->
    <rect x="1560" y="220" width="280" height="12" fill="#2a1f10" rx="2"/>
    <rect x="1568" y="150" width="20" height="70" fill="#3a1a1a" rx="1"/>
    <rect x="1591" y="158" width="24" height="62" fill="#1a2a3a" rx="1"/>
    <rect x="1618" y="145" width="18" height="75" fill="#1a3a1a" rx="1"/>
    <rect x="1640" y="160" width="22" height="60" fill="#3a2a1a" rx="1"/>
    <rect x="1665" y="152" width="20" height="68" fill="#2a1a3a" rx="1"/>
    <!-- small plant pot -->
    <ellipse cx="1728" cy="218" rx="16" ry="8" fill="#1a2a12"/>
    <rect x="1720" y="150" width="16" height="70" fill="#1c2e10" rx="3"/>
    <ellipse cx="1715" cy="152" rx="9" ry="12" fill="#2a4a18"/>
    <ellipse cx="1732" cy="145" rx="8" ry="11" fill="#22401a"/>
    <ellipse cx="1724" cy="138" rx="6" ry="9" fill="#2a4a1a"/>
  </g>

  <!-- Abstract poster on wall -->
  <g opacity="0.15" filter="url(#softBlur)">
    <rect x="820" y="60" width="280" height="160" fill="#0a1020" stroke="#1a2030" stroke-width="1" rx="2"/>
    <text x="960" y="115" font-family="monospace" font-size="11" fill="#00aaff" text-anchor="middle">KALI LINUX</text>
    <text x="960" y="133" font-family="monospace" font-size="9" fill="#0066aa" text-anchor="middle">THE QUIETER YOU BECOME</text>
    <text x="960" y="148" font-family="monospace" font-size="9" fill="#0066aa" text-anchor="middle">THE MORE YOU ARE ABLE TO HEAR</text>
    <circle cx="960" cy="180" r="20" fill="none" stroke="#00aaff" stroke-width="1.5" opacity="0.5"/>
    <circle cx="960" cy="180" r="12" fill="none" stroke="#0077cc" stroke-width="1" opacity="0.4"/>
    <line x1="960" y1="166" x2="960" y2="194" stroke="#00aaff" stroke-width="1" opacity="0.5"/>
    <line x1="946" y1="180" x2="974" y2="180" stroke="#00aaff" stroke-width="1" opacity="0.5"/>
  </g>

  <!-- ── DESK ── -->
  <!-- Desk top surface -->
  <rect x="0" y="640" width="1920" height="440" fill="url(#deskGrad)"/>
  <!-- Desk edge highlight -->
  <rect x="0" y="640" width="1920" height="3" fill="#2a1e0e" opacity="0.8"/>
  <!-- Desk edge shadow -->
  <rect x="0" y="643" width="1920" height="8" fill="#000" opacity="0.4"/>
  <!-- Desk surface texture (subtle grain) -->
  <line x1="0" y1="660" x2="1920" y2="660" stroke="#161008" stroke-width="0.5" opacity="0.6"/>
  <line x1="0" y1="700" x2="1920" y2="700" stroke="#161008" stroke-width="0.5" opacity="0.4"/>
  <line x1="0" y1="750" x2="1920" y2="750" stroke="#161008" stroke-width="0.5" opacity="0.3"/>

  <!-- ── LAPTOP BASE / KEYBOARD ── -->
  <!-- Laptop body (base) -->
  <rect x="450" y="682" width="1020" height="380" fill="url(#kbGrad)" rx="14"/>
  <!-- Base top face (keyboard deck) -->
  <rect x="456" y="686" width="1008" height="370" fill="#17171b" rx="11"/>
  <!-- Palm rest area -->
  <rect x="470" y="820" width="980" height="230" fill="#141416" rx="8"/>

  <!-- Keyboard area background -->
  <rect x="490" y="696" width="940" height="220" fill="#0e0e12" rx="6"/>

  <!-- Keyboard rows — individual key blocks -->
  <g fill="#1e1e24" stroke="#2a2a32" stroke-width="0.5">
    <!-- Row 1 (function keys) -->
    <g>
      <!-- ESC -->
      <rect x="498" y="704" width="36" height="28" rx="4"/>
      <!-- F1-F12 -->
      <rect x="564" y="704" width="32" height="28" rx="4"/>
      <rect x="600" y="704" width="32" height="28" rx="4"/>
      <rect x="636" y="704" width="32" height="28" rx="4"/>
      <rect x="672" y="704" width="32" height="28" rx="4"/>
      <rect x="722" y="704" width="32" height="28" rx="4"/>
      <rect x="758" y="704" width="32" height="28" rx="4"/>
      <rect x="794" y="704" width="32" height="28" rx="4"/>
      <rect x="830" y="704" width="32" height="28" rx="4"/>
      <rect x="880" y="704" width="32" height="28" rx="4"/>
      <rect x="916" y="704" width="32" height="28" rx="4"/>
      <rect x="952" y="704" width="32" height="28" rx="4"/>
      <rect x="988" y="704" width="32" height="28" rx="4"/>
      <rect x="1038" y="704" width="32" height="28" rx="4"/>
      <rect x="1074" y="704" width="32" height="28" rx="4"/>
      <rect x="1110" y="704" width="32" height="28" rx="4"/>
      <rect x="1390" y="704" width="28" height="28" rx="4"/>
    </g>
    <!-- Row 2 (number row) -->
    <g>
      <rect x="498" y="740" width="36" height="32" rx="4"/>
      <rect x="538" y="740" width="36" height="32" rx="4"/>
      <rect x="578" y="740" width="36" height="32" rx="4"/>
      <rect x="618" y="740" width="36" height="32" rx="4"/>
      <rect x="658" y="740" width="36" height="32" rx="4"/>
      <rect x="698" y="740" width="36" height="32" rx="4"/>
      <rect x="738" y="740" width="36" height="32" rx="4"/>
      <rect x="778" y="740" width="36" height="32" rx="4"/>
      <rect x="818" y="740" width="36" height="32" rx="4"/>
      <rect x="858" y="740" width="36" height="32" rx="4"/>
      <rect x="898" y="740" width="36" height="32" rx="4"/>
      <rect x="938" y="740" width="36" height="32" rx="4"/>
      <rect x="978" y="740" width="36" height="32" rx="4"/>
      <rect x="1018" y="740" width="36" height="32" rx="4"/>
      <rect x="1058" y="740" width="36" height="32" rx="4"/>
      <rect x="1098" y="740" width="36" height="32" rx="4"/>
      <rect x="1138" y="740" width="62" height="32" rx="4"/> <!-- Backspace -->
    </g>
    <!-- Row 3 (QWERTY) -->
    <g>
      <rect x="498" y="778" width="55" height="32" rx="4"/> <!-- Tab -->
      <rect x="557" y="778" width="36" height="32" rx="4"/> <!-- Q -->
      <rect x="597" y="778" width="36" height="32" rx="4"/> <!-- W -->
      <rect x="637" y="778" width="36" height="32" rx="4"/> <!-- E -->
      <rect x="677" y="778" width="36" height="32" rx="4"/> <!-- R -->
      <rect x="717" y="778" width="36" height="32" rx="4"/> <!-- T -->
      <rect x="757" y="778" width="36" height="32" rx="4"/> <!-- Y -->
      <rect x="797" y="778" width="36" height="32" rx="4"/> <!-- U -->
      <rect x="837" y="778" width="36" height="32" rx="4"/> <!-- I -->
      <rect x="877" y="778" width="36" height="32" rx="4"/> <!-- O -->
      <rect x="917" y="778" width="36" height="32" rx="4"/> <!-- P -->
      <rect x="957" y="778" width="36" height="32" rx="4"/>
      <rect x="997" y="778" width="36" height="32" rx="4"/>
      <rect x="1037" y="778" width="36" height="32" rx="4"/>
      <rect x="1077" y="778" width="36" height="32" rx="4"/>
      <rect x="1117" y="778" width="36" height="32" rx="4"/>
      <rect x="1157" y="778" width="43" height="32" rx="4"/> <!-- Enter top -->
    </g>
    <!-- Row 4 (ASDF) -->
    <g>
      <rect x="498" y="816" width="65" height="32" rx="4"/> <!-- Caps -->
      <rect x="567" y="816" width="36" height="32" rx="4"/>
      <rect x="607" y="816" width="36" height="32" rx="4"/>
      <rect x="647" y="816" width="36" height="32" rx="4"/>
      <rect x="687" y="816" width="36" height="32" rx="4"/>
      <rect x="727" y="816" width="36" height="32" rx="4"/>
      <rect x="767" y="816" width="36" height="32" rx="4"/>
      <rect x="807" y="816" width="36" height="32" rx="4"/>
      <rect x="847" y="816" width="36" height="32" rx="4"/>
      <rect x="887" y="816" width="36" height="32" rx="4"/>
      <rect x="927" y="816" width="36" height="32" rx="4"/>
      <rect x="967" y="816" width="36" height="32" rx="4"/>
      <rect x="1007" y="816" width="36" height="32" rx="4"/>
      <rect x="1047" y="816" width="36" height="32" rx="4"/>
      <rect x="1087" y="816" width="36" height="32" rx="4"/>
    </g>
  </g>

  <!-- Keyboard key labels (tiny but visible) -->
  <g fill="#3a3a48" font-family="monospace" font-size="9" text-anchor="middle">
    <text x="565" y="759">q</text><text x="605" y="759">w</text>
    <text x="645" y="759">e</text><text x="685" y="759">r</text>
    <text x="725" y="759">t</text><text x="765" y="759">y</text>
    <text x="805" y="759">u</text><text x="845" y="759">i</text>
    <text x="885" y="759">o</text><text x="925" y="759">p</text>
  </g>

  <!-- Trackpad -->
  <rect x="810" y="864" width="300" height="160" fill="url(#tpadGrad)" rx="8" stroke="#222228" stroke-width="1"/>
  <rect x="815" y="869" width="290" height="150" fill="#121216" rx="6" opacity="0.6"/>

  <!-- Power LED (green, pulsing) -->
  <circle cx="960" cy="688" r="4" fill="#00ff88" opacity="0.8" class="led-power" filter="url(#glow4)"/>

  <!-- ── LAPTOP SCREEN LID ── -->
  <!-- Lid outer shell -->
  <rect x="456" y="100" width="1008" height="590" fill="url(#lidGrad)" rx="14"/>
  <!-- Lid inner bezel -->
  <rect x="466" y="110" width="988" height="570" fill="#0a0a0e" rx="10"/>

  <!-- Screen glow bloom behind screen -->
  <rect x="548" y="104" width="824" height="540" fill="#001828" opacity="0.8" filter="url(#screenBlur)" rx="6"/>

  <!-- ── SCREEN CONTENT ── -->
  <!-- Screen background -->
  <rect x="548" y="106" width="824" height="532" fill="url(#screenBg)" rx="4"/>

  <!-- Kali desktop top bar -->
  <rect x="548" y="106" width="824" height="26" fill="#0f1420" rx="4"/>
  <rect x="548" y="120" width="824" height="12" fill="#0f1420"/>
  <!-- Top bar items -->
  <circle cx="568" cy="119" r="5" fill="#ff5555" opacity="0.8"/>
  <circle cx="582" cy="119" r="5" fill="#ffaa00" opacity="0.8"/>
  <circle cx="596" cy="119" r="5" fill="#00cc44" opacity="0.8"/>
  <rect x="618" y="112" width="140" height="14" fill="#1a2030" rx="3"/>
  <text x="688" y="123" font-family="monospace" font-size="9" fill="#6080a0" text-anchor="middle">Terminal — ryan@kali</text>
  <!-- System tray icons -->
  <text x="1320" y="123" font-family="monospace" font-size="8" fill="#4a6080">🔒 VPN  ◀  02:47</text>

  <!-- Terminal window background -->
  <rect x="548" y="132" width="824" height="506" fill="#060c10"/>

  <!-- Terminal content (scrolling) -->
  <g clip-path="url(#screenClip)">
    <g class="term-scroll">
      <!-- Green prompt lines -->
      <text x="560" y="160" font-family="monospace" font-size="11" fill="#00cc44">┌──(ryan㉿kali)-[~/projects/echo-watch]</text>
      <text x="560" y="175" font-family="monospace" font-size="11" fill="#00cc44">└─$ <tspan fill="#e0e0e0">python3 signal_monitor.py --freq 14.230 --mode SSTV</tspan></text>
      <text x="560" y="195" font-family="monospace" font-size="11" fill="#4a9a6a">[*] Monitoring 14.230 MHz for SSTV transmissions...</text>
      <text x="560" y="210" font-family="monospace" font-size="11" fill="#4a9a6a">[*] SDR device: RTL-SDR v3  gain: 35dB  sample: 2.4MSps</text>
      <text x="560" y="230" font-family="monospace" font-size="11" fill="#00cc44">┌──(ryan㉿kali)-[~/projects/echo-watch]</text>
      <text x="560" y="245" font-family="monospace" font-size="11" fill="#00cc44">└─$ <tspan fill="#e0e0e0">nmap -sV -p 22,80,443 192.168.1.0/24 2&gt;/dev/null</tspan></text>
      <text x="560" y="265" font-family="monospace" font-size="11" fill="#4a9a6a">Starting Nmap 7.94 ( https://nmap.org )</text>
      <text x="560" y="280" font-family="monospace" font-size="11" fill="#6080a0">Host: 192.168.1.1   Ports: 80/http, 443/https</text>
      <text x="560" y="295" font-family="monospace" font-size="11" fill="#6080a0">Host: 192.168.1.42  Ports: 22/ssh (OpenSSH 9.2)</text>
      <text x="560" y="315" font-family="monospace" font-size="11" fill="#00cc44">┌──(ryan㉿kali)-[~/projects/echo-watch]</text>
      <text x="560" y="330" font-family="monospace" font-size="11" fill="#00cc44">└─$ <tspan fill="#e0e0e0">cat decoded_message.txt</tspan></text>
      <text x="560" y="350" font-family="monospace" font-size="11" fill="#ffcc00">⚠  WARNING - PROJECT ECHO IS COMPROMISED</text>
      <text x="560" y="365" font-family="monospace" font-size="11" fill="#ff8844">   MOVE TO BACKUP CHANNEL - TRUST NO ONE</text>
      <text x="560" y="385" font-family="monospace" font-size="11" fill="#00cc44">┌──(ryan㉿kali)-[~/projects/echo-watch]</text>
      <text x="560" y="400" font-family="monospace" font-size="11" fill="#00cc44">└─$ <tspan fill="#e0e0e0">./deadmans_switch.sh --status</tspan></text>
      <text x="560" y="420" font-family="monospace" font-size="11" fill="#4a9a6a">[OK] Dead man's switch: ARMED  (72h remaining)</text>
      <text x="560" y="435" font-family="monospace" font-size="11" fill="#4a9a6a">[OK] Encrypted backup: synced to 3 nodes</text>
      <text x="560" y="455" font-family="monospace" font-size="11" fill="#4a9a6a">[OK] Tor circuit: established (3 hops)</text>
      <text x="560" y="475" font-family="monospace" font-size="11" fill="#00cc44">┌──(ryan㉿kali)-[~/projects/echo-watch]</text>
      <text x="560" y="490" font-family="monospace" font-size="11" fill="#00cc44">└─$ <tspan fill="#e0e0e0">protonmail-cli --check-inbox</tspan></text>
      <text x="560" y="510" font-family="monospace" font-size="11" fill="#6080a0">Inbox: 3 new messages</text>
      <text x="560" y="525" font-family="monospace" font-size="11" fill="#6080a0">  [1] Newsletter: Hackerspace Drenthe meetup</text>
      <text x="560" y="540" font-family="monospace" font-size="11" fill="#6080a0">  [2] Spam: Claim your prize!!</text>
      <text x="560" y="555" font-family="monospace" font-size="11" fill="#6080a0">  [3] *** ENCRYPTED — sender unknown ***</text>
      <text x="560" y="575" font-family="monospace" font-size="11" fill="#00cc44">┌──(ryan㉿kali)-[~/projects/echo-watch]</text>
      <text x="560" y="590" font-family="monospace" font-size="11" fill="#00cc44">└─$ <tspan fill="#e0e0e0" class="cursor">█</tspan></text>
    </g>
  </g>

  <!-- Scanlines overlay on screen -->
  <rect x="548" y="106" width="824" height="532" fill="url(#scanlines)" opacity="0.4"/>

  <!-- Screen reflection / glare -->
  <rect x="548" y="106" width="824" height="532" fill="url(#screenGlow)"/>

  <!-- ── SCREEN HARDWARE DETAILS ── -->
  <!-- Webcam dot -->
  <circle cx="960" cy="112" r="5" fill="#0a0a0e"/>
  <circle cx="960" cy="112" r="3" fill="#111116"/>
  <circle cx="960" cy="112" r="1.5" fill="#1a1a20" opacity="0.5"/>

  <!-- Bottom lid hinge area -->
  <rect x="540" y="688" width="840" height="16" fill="#1a1a1f" rx="4"/>
  <line x1="600" y1="688" x2="600" y2="704" stroke="#252528" stroke-width="1"/>
  <line x1="1320" y1="688" x2="1320" y2="704" stroke="#252528" stroke-width="1"/>

  <!-- ── KALI DRAGON sticker on lid ── -->
  <g transform="translate(1350, 480)">
    <circle cx="0" cy="0" r="20" fill="#1a0005" opacity="0.4" filter="url(#glow4)"/>
    <text x="0" y="6" font-size="22" text-anchor="middle" fill="#cc0022" opacity="0.7">🐉</text>
  </g>

  <!-- ── COFFEE MUG (right side of desk) ── -->
  <g transform="translate(1650, 660)">
    <!-- Mug body -->
    <rect x="-28" y="20" width="56" height="72" fill="url(#mugGrad)" rx="4"/>
    <!-- Mug rim -->
    <ellipse cx="0" cy="20" rx="28" ry="8" fill="#2e2e36"/>
    <!-- Coffee surface -->
    <ellipse cx="0" cy="22" rx="24" ry="6" fill="#1a0e04"/>
    <!-- Steam particles -->
    <path class="steam" d="M -8 14 Q -4 0 -8 -14" stroke="#aaa" stroke-width="1.5" fill="none" stroke-linecap="round" opacity="0.5"/>
    <path class="steam2" d="M 0 12 Q 4 -2 0 -16" stroke="#aaa" stroke-width="1.5" fill="none" stroke-linecap="round" opacity="0.4"/>
    <path class="steam" style="animation-delay:0.6s" d="M 8 14 Q 4 0 8 -14" stroke="#aaa" stroke-width="1.5" fill="none" stroke-linecap="round" opacity="0.3"/>
    <!-- Handle -->
    <path d="M 28 36 Q 50 36 50 56 Q 50 76 28 76" stroke="#252530" stroke-width="6" fill="none" stroke-linecap="round"/>
    <!-- Mug text -->
    <text x="0" y="62" font-family="monospace" font-size="9" fill="#3a3a48" text-anchor="middle">root</text>
  </g>

  <!-- ── POST-IT NOTES (left of laptop) ── -->
  <g transform="translate(140, 660)">
    <rect x="0" y="0" width="160" height="130" fill="#2a2808" rx="3" transform="rotate(-3)"/>
    <text x="10" y="25" font-family="monospace" font-size="10" fill="#aaaa44" transform="rotate(-3)">TODO:</text>
    <text x="10" y="44" font-family="monospace" font-size="9" fill="#888832" transform="rotate(-3)">✓ check SSTV signal</text>
    <text x="10" y="59" font-family="monospace" font-size="9" fill="#888832" transform="rotate(-3)">→ decode ROT1</text>
    <text x="10" y="74" font-family="monospace" font-size="9" fill="#888832" transform="rotate(-3)">→ HackRF 243 MHz</text>
    <text x="10" y="89" font-family="monospace" font-size="9" fill="#555520" transform="rotate(-3)">→ klooster 23:00</text>
    <text x="10" y="104" font-family="monospace" font-size="9" fill="#555520" transform="rotate(-3)">→ trust no one</text>
  </g>

  <!-- ── USB DRIVE plugged into laptop side ── -->
  <rect x="1478" y="770" width="38" height="14" fill="#2a2a30" rx="3" stroke="#3a3a40" stroke-width="1"/>
  <rect x="1482" y="772" width="30" height="10" fill="#111114" rx="2"/>
  <circle cx="1510" cy="763" r="4" fill="#004488" opacity="0.6" filter="url(#glow4)"/>

  <!-- ── FLOOR / FOOT AREA ── -->
  <rect x="0" y="1020" width="1920" height="60" fill="#060810"/>
  <rect x="0" y="1018" width="1920" height="4" fill="#0a0d16" opacity="0.8"/>

</svg>
