<svg xmlns="http://www.w3.org/2000/svg" viewBox="0 0 1920 1080">
  <defs>
    <!-- Night sky -->
    <linearGradient id="nightSky" x1="0" y1="0" x2="0" y2="1">
      <stop offset="0%" stop-color="#0a0a1e"/>
      <stop offset="40%" stop-color="#0f0f28"/>
      <stop offset="80%" stop-color="#101825"/>
      <stop offset="100%" stop-color="#0a1015"/>
    </linearGradient>

    <!-- Ground (dark parking area) -->
    <linearGradient id="ground" x1="0" y1="0" x2="0" y2="1">
      <stop offset="0%" stop-color="#12161a"/>
      <stop offset="100%" stop-color="#0a0e10"/>
    </linearGradient>

    <!-- Moonlight pool on ground -->
    <radialGradient id="moonPool" cx="55%" cy="60%" r="30%">
      <stop offset="0%" stop-color="rgba(180,190,210,0.06)"/>
      <stop offset="100%" stop-color="rgba(0,0,0,0)"/>
    </radialGradient>

    <!-- Moon glow -->
    <radialGradient id="moonGlow" cx="50%" cy="50%" r="50%">
      <stop offset="0%" stop-color="#fffff0"/>
      <stop offset="30%" stop-color="rgba(220,225,240,0.4)"/>
      <stop offset="100%" stop-color="rgba(0,0,0,0)"/>
    </radialGradient>

    <!-- Volvo body -->
    <linearGradient id="volvoBody" x1="0" y1="0" x2="0" y2="1">
      <stop offset="0%" stop-color="#3a4550"/>
      <stop offset="50%" stop-color="#2a3540"/>
      <stop offset="100%" stop-color="#1e2830"/>
    </linearGradient>

    <!-- USB glow (subtle, eerie) -->
    <radialGradient id="usbGlow" cx="50%" cy="50%" r="50%">
      <stop offset="0%" stop-color="rgba(255,220,100,0.15)"/>
      <stop offset="60%" stop-color="rgba(255,200,80,0.05)"/>
      <stop offset="100%" stop-color="rgba(0,0,0,0)"/>
    </radialGradient>

    <!-- Cinematic vignette -->
    <radialGradient id="vignette" cx="50%" cy="50%" r="65%">
      <stop offset="0%" stop-color="rgba(0,0,0,0)"/>
      <stop offset="60%" stop-color="rgba(0,0,0,0)"/>
      <stop offset="100%" stop-color="rgba(0,0,0,0.5)"/>
    </radialGradient>

    <filter id="softGlow"><feGaussianBlur stdDeviation="8"/></filter>
    <filter id="moonBlur"><feGaussianBlur stdDeviation="15"/></filter>
    <filter id="shadow"><feDropShadow dx="0" dy="3" stdDeviation="6" flood-opacity="0.4"/></filter>
  </defs>

  <!-- ===== NIGHT SKY ===== -->
  <rect width="1920" height="1080" fill="url(#nightSky)"/>

  <!-- Stars -->
  <g fill="#fff">
    <circle cx="120" cy="80" r="1.2" opacity="0.7"/>
    <circle cx="340" cy="120" r="0.8" opacity="0.5"/>
    <circle cx="500" cy="60" r="1" opacity="0.6"/>
    <circle cx="680" cy="140" r="0.7" opacity="0.4"/>
    <circle cx="850" cy="50" r="1.1" opacity="0.7"/>
    <circle cx="1050" cy="100" r="0.8" opacity="0.5"/>
    <circle cx="1200" cy="70" r="1" opacity="0.6"/>
    <circle cx="1380" cy="130" r="0.9" opacity="0.5"/>
    <circle cx="1550" cy="45" r="1.2" opacity="0.7"/>
    <circle cx="1780" cy="90" r="0.7" opacity="0.4"/>
    <circle cx="260" cy="200" r="0.6" opacity="0.3"/>
    <circle cx="760" cy="190" r="0.8" opacity="0.4"/>
    <circle cx="1450" cy="200" r="0.7" opacity="0.3"/>
    <!-- Twinkling star -->
    <circle cx="420" cy="95" r="1.3" opacity="0.6">
      <animate attributeName="opacity" values="0.6;0.2;0.6" dur="3s" repeatCount="indefinite"/>
    </circle>
    <circle cx="1650" cy="75" r="1" opacity="0.5">
      <animate attributeName="opacity" values="0.5;0.15;0.5" dur="4s" repeatCount="indefinite"/>
    </circle>
  </g>

  <!-- Moon -->
  <circle cx="1650" cy="180" r="180" fill="url(#moonGlow)" filter="url(#moonBlur)" opacity="0.5"/>
  <circle cx="1650" cy="180" r="55" fill="#f8f8f0" opacity="0.9"/>
  <circle cx="1642" cy="172" r="10" fill="#eeeeea" opacity="0.5"/>
  <circle cx="1658" cy="188" r="7" fill="#eeeeea" opacity="0.4"/>

  <!-- ===== MONASTERY SILHOUETTE (distant, dark) ===== -->
  <g opacity="0.25" fill="#0a0e14">
    <!-- Tower -->
    <rect x="280" y="200" width="80" height="280" rx="2"/>
    <polygon points="280,200 320,140 360,200"/>
    <!-- Cross -->
    <rect x="314" y="120" width="12" height="35"/>
    <rect x="306" y="130" width="28" height="10"/>
    <!-- Left wing -->
    <rect x="100" y="300" width="200" height="180" rx="3"/>
    <!-- Right wing -->
    <rect x="340" y="310" width="180" height="170" rx="3"/>
    <!-- Windows (faint glow) -->
    <rect x="160" y="340" width="18" height="30" rx="2" fill="#1a1a2a" opacity="0.4"/>
    <rect x="210" y="340" width="18" height="30" rx="2" fill="#1a1a2a" opacity="0.3"/>
    <rect x="260" y="340" width="18" height="30" rx="2" fill="#1a1a2a" opacity="0.4"/>
    <rect x="390" y="350" width="18" height="28" rx="2" fill="#1a1a2a" opacity="0.3"/>
    <rect x="440" y="350" width="18" height="28" rx="2" fill="#1a1a2a" opacity="0.35"/>
  </g>

  <!-- ===== TREE (old oak over the car) ===== -->
  <g transform="translate(950, 180)">
    <!-- Trunk -->
    <rect x="-12" y="120" width="24" height="200" fill="#0e1214"/>
    <rect x="-18" y="280" width="36" height="40" fill="#0c1012" rx="3"/>
    <!-- Canopy (dark mass) -->
    <ellipse cx="0" cy="80" rx="180" ry="100" fill="#0a1210" opacity="0.8"/>
    <ellipse cx="-60" cy="60" rx="120" ry="80" fill="#081010" opacity="0.7"/>
    <ellipse cx="70" cy="90" rx="130" ry="70" fill="#0a1210" opacity="0.7"/>
    <!-- Moonlight filtering through leaves -->
    <g opacity="0.08">
      <circle cx="40" cy="100" r="3" fill="#b0b8c0"/>
      <circle cx="-20" cy="80" r="2" fill="#a8b0b8"/>
      <circle cx="80" cy="110" r="2.5" fill="#b0b8c0"/>
      <circle cx="-50" cy="95" r="1.8" fill="#a8b0b8"/>
    </g>
  </g>

  <!-- ===== GROUND / PARKING AREA ===== -->
  <rect x="0" y="480" width="1920" height="600" fill="url(#ground)"/>

  <!-- Gravel texture -->
  <g opacity="0.08" fill="#2a3038">
    <circle cx="200" cy="600" r="1.5"/>
    <circle cx="350" cy="650" r="1"/>
    <circle cx="500" cy="580" r="1.2"/>
    <circle cx="700" cy="620" r="1.5"/>
    <circle cx="900" cy="600" r="1"/>
    <circle cx="1100" cy="650" r="1.3"/>
    <circle cx="1300" cy="590" r="1.5"/>
    <circle cx="1500" cy="630" r="1"/>
    <circle cx="1700" cy="610" r="1.2"/>
    <circle cx="400" cy="700" r="1.5"/>
    <circle cx="800" cy="720" r="1"/>
    <circle cx="1200" cy="690" r="1.3"/>
    <circle cx="1600" cy="710" r="1.5"/>
  </g>

  <!-- Moonlight pool on ground -->
  <rect width="1920" height="1080" fill="url(#moonPool)"/>

  <!-- ===== STONE BENCH (the dead drop location) ===== -->
  <g transform="translate(400, 620)" filter="url(#shadow)">
    <!-- Shadow under bench -->
    <ellipse cx="560" cy="175" rx="520" ry="18" fill="rgba(0,0,0,0.4)"/>

    <!-- Stone seat slab (top surface) -->
    <rect x="0" y="40" width="1120" height="85" rx="4" fill="#4a4a52"/>
    <!-- Seat surface highlight (moonlight) -->
    <rect x="10" y="42" width="1100" height="18" rx="2" fill="#5e5e68" opacity="0.6"/>
    <!-- Seat front face -->
    <rect x="0" y="125" width="1120" height="28" rx="3" fill="#3a3a42"/>

    <!-- Left stone leg -->
    <rect x="40" y="153" width="170" height="210" rx="5" fill="#3e3e48"/>
    <rect x="48" y="157" width="154" height="20" rx="2" fill="#504e58" opacity="0.5"/>

    <!-- Right stone leg -->
    <rect x="910" y="153" width="170" height="210" rx="5" fill="#3e3e48"/>
    <rect x="918" y="157" width="154" height="20" rx="2" fill="#504e58" opacity="0.5"/>

    <!-- Ground contact / base plates -->
    <rect x="20" y="355" width="210" height="14" rx="2" fill="#2e2e36"/>
    <rect x="890" y="355" width="210" height="14" rx="2" fill="#2e2e36"/>

    <!-- === UNDERSIDE AREA (where USB is hidden) === -->
    <!-- Space beneath the seat between the legs — barely lit -->
    <rect x="210" y="153" width="700" height="70" fill="#14141c" opacity="0.9" rx="2"/>

    <!-- === USB STICK (taped under seat — barely visible) === -->
    <g transform="translate(500, 160)">
      <!-- Subtle amber glow -->
      <circle cx="30" cy="20" r="55" fill="url(#usbGlow)">
        <animate attributeName="r" values="50;65;50" dur="4s" repeatCount="indefinite"/>
      </circle>
      <!-- Tape strip -->
      <rect x="0" y="8" width="60" height="8" rx="1" fill="#787878" opacity="0.35"/>
      <!-- USB body (tiny, dark, mysterious) -->
      <rect x="8" y="2" width="14" height="28" rx="1.5" fill="#181820" stroke="#2a2a32" stroke-width="0.5"/>
      <rect x="10" y="26" width="10" height="6" rx="0.5" fill="#a0a0a8" opacity="0.2"/>
    </g>
  </g>

  <!-- ===== FOREGROUND ELEMENTS ===== -->

  <!-- Hedge/bushes (dark silhouettes) -->
  <g opacity="0.5">
    <ellipse cx="100" cy="900" rx="120" ry="50" fill="#080e0a"/>
    <ellipse cx="250" cy="920" rx="80" ry="40" fill="#0a100c"/>
    <ellipse cx="1700" cy="890" rx="100" ry="45" fill="#080e0a"/>
    <ellipse cx="1850" cy="910" rx="90" ry="40" fill="#0a100c"/>
  </g>

  <!-- Old lamp post (distant, not lit — abandoned) -->
  <g transform="translate(600, 350)" opacity="0.2">
    <rect x="0" y="0" width="4" height="130" fill="#1a1e22"/>
    <ellipse cx="2" cy="-5" rx="12" ry="8" fill="#141820"/>
  </g>

  <!-- ===== ATMOSPHERE ===== -->

  <!-- Fog / mist layer -->
  <g opacity="0.04" filter="url(#softGlow)">
    <ellipse cx="600" cy="600" rx="500" ry="80" fill="#8090a0"/>
    <ellipse cx="1400" cy="650" rx="400" ry="60" fill="#8090a0">
      <animate attributeName="cx" values="1400;1500;1400" dur="30s" repeatCount="indefinite"/>
    </ellipse>
  </g>

  <!-- ===== CINEMATIC VIGNETTE ===== -->
  <rect width="1920" height="1080" fill="url(#vignette)"/>

  <!-- Scene label (very subtle) -->
  <text x="960" y="1065" text-anchor="middle" font-family="monospace" font-size="10" fill="#1a2028" opacity="0.15" letter-spacing="4">TER APEL KLOOSTER — 23:03</text>
</svg>
