<svg xmlns="http://www.w3.org/2000/svg" viewBox="0 0 1920 1080"
  preserveAspectRatio="xMidYMid slice"
  width="1920" height="1080">
  <!--
    Drone Hunt — Effects foreground overlay
    Contains HackRF TX LED, crashed drone wreckage, and GPS spoof radio waves.
    Elements are toggled by JS via _setSVGElementOpacity().
    Loaded via fetch() and injected into #drone-fx-overlay div.
  -->
  <defs>
    <linearGradient id="fx-swampWater" x1="0" y1="0" x2="0" y2="1">
      <stop offset="0%"   stop-color="#0a1018"/>
      <stop offset="50%"  stop-color="#060c14"/>
      <stop offset="100%" stop-color="#040810"/>
    </linearGradient>
    <filter id="fx-cloudBlur"><feGaussianBlur stdDeviation="8"/></filter>
  </defs>

  <!-- HackRF TX LED — position matches background SVG device (translate(495,618) + cx=36,cy=6) -->
  <circle id="hackrf-tx-led" cx="531" cy="624" r="2.5" fill="#ff2200" style="opacity:0;"/>

  <!-- Crashed drone wreckage — revealed after the crash sequence -->
  <g id="crashed-drones" style="opacity:0;">
    <g transform="translate(520,710)">
      <line x1="0" y1="0" x2="-15" y2="-8" stroke="#383838" stroke-width="2.5"/>
      <line x1="0" y1="0" x2="12"  y2="-6" stroke="#383838" stroke-width="2.5"/>
      <polygon points="-8,-2 -6,-6 6,-6 8,-2 6,4 -6,4" fill="#1c1c1c"/>
      <line x1="-15" y1="-8" x2="-25" y2="-12" stroke="#555" stroke-width="1.5"/>
      <line x1="-15" y1="-8" x2="-18" y2="-18" stroke="#555" stroke-width="1"/>
      <circle cx="5" cy="-3" r="2" fill="#ff8800" opacity="0.6">
        <animate attributeName="opacity" values="0.6;0;0.3;0;0.6;0;0" dur="2s" repeatCount="indefinite"/>
      </circle>
      <rect x="-20" y="2" width="40" height="12" fill="url(#fx-swampWater)" opacity="0.7"/>
    </g>
    <g transform="translate(680,685)">
      <line x1="-5" y1="0"  x2="-20" y2="5"  stroke="#383838" stroke-width="2"/>
      <line x1="5"  y1="0"  x2="18"  y2="8"  stroke="#383838" stroke-width="2"/>
      <polygon points="-6,-1 -4,-5 4,-5 6,-1 4,3 -4,3" fill="#1c1c1c" transform="rotate(35)"/>
      <line x1="18"  y1="8" x2="30"  y2="5"  stroke="#444" stroke-width="1"/>
      <line x1="-20" y1="5" x2="-30" y2="12" stroke="#444" stroke-width="1.5"/>
      <circle cx="0" cy="-5" r="1.5" fill="#ff0000" opacity="0.4">
        <animate attributeName="opacity" values="0.4;0;0;0;0.4;0;0;0;0;0" dur="3s" repeatCount="indefinite"/>
      </circle>
    </g>
    <g transform="translate(1370,755)">
      <polygon points="-5,-1 -3,-4 3,-4 5,-1 3,2 -3,2" fill="#1c1c1c" transform="rotate(-20)"/>
      <line x1="-5" y1="0" x2="-12" y2="3"  stroke="#383838" stroke-width="1.5"/>
      <line x1="5"  y1="0" x2="14"  y2="-2" stroke="#383838" stroke-width="1.5"/>
      <g opacity="0.12" filter="url(#fx-cloudBlur)">
        <circle cx="0" cy="-5" r="4" fill="#506070">
          <animate attributeName="cy"      values="-5;-30;-60"    dur="6s" repeatCount="indefinite"/>
          <animate attributeName="r"       values="4;10;18"       dur="6s" repeatCount="indefinite"/>
          <animate attributeName="opacity" values="0.12;0.06;0"   dur="6s" repeatCount="indefinite"/>
        </circle>
      </g>
      <ellipse cx="0" cy="5" rx="20" ry="4" fill="none" stroke="rgba(100,120,160,0.08)" stroke-width="0.5">
        <animate attributeName="rx"      values="20;30;40"  dur="4s" repeatCount="indefinite"/>
        <animate attributeName="opacity" values="1;0.5;0"   dur="4s" repeatCount="indefinite"/>
      </ellipse>
    </g>
  </g>

  <!-- GPS spoof radio waves — shown briefly during spoof, then hidden -->
  <g id="spoof-waves" style="opacity:0;">
    <circle cx="520" cy="630" r="20" fill="none" stroke="rgba(0,255,100,0.3)" stroke-width="1.5">
      <animate attributeName="r"       values="20;200;500"   dur="3s"              repeatCount="indefinite"/>
      <animate attributeName="opacity" values="0.3;0.1;0"    dur="3s"              repeatCount="indefinite"/>
    </circle>
    <circle cx="520" cy="630" r="20" fill="none" stroke="rgba(0,255,100,0.25)" stroke-width="1">
      <animate attributeName="r"       values="20;200;500"   dur="3s" begin="1s"   repeatCount="indefinite"/>
      <animate attributeName="opacity" values="0.25;0.08;0"  dur="3s" begin="1s"   repeatCount="indefinite"/>
    </circle>
    <circle cx="520" cy="630" r="20" fill="none" stroke="rgba(0,200,80,0.2)" stroke-width="1">
      <animate attributeName="r"       values="20;200;500"   dur="3s" begin="2s"   repeatCount="indefinite"/>
      <animate attributeName="opacity" values="0.2;0.06;0"   dur="3s" begin="2s"   repeatCount="indefinite"/>
    </circle>
  </g>
</svg>
