<svg xmlns="http://www.w3.org/2000/svg" viewBox="0 0 200 140" width="200" height="140">
  <!-- SSTV decoded surveillance photo — Ryan's farmhouse from across the canal (green phosphor) -->
  <defs>
    <linearGradient id="pb-crt" x1="0" y1="0" x2="0" y2="1">
      <stop offset="0%" stop-color="#001a00"/>
      <stop offset="50%" stop-color="#002200"/>
      <stop offset="100%" stop-color="#001000"/>
    </linearGradient>
  </defs>
  <rect width="200" height="140" fill="url(#pb-crt)"/>
  <!-- Scan lines -->
  <g opacity="0.08">
    <line x1="0" y1="10" x2="200" y2="10" stroke="#0f0" stroke-width="0.5"/>
    <line x1="0" y1="20" x2="200" y2="20" stroke="#0f0" stroke-width="0.5"/>
    <line x1="0" y1="30" x2="200" y2="30" stroke="#0f0" stroke-width="0.5"/>
    <line x1="0" y1="40" x2="200" y2="40" stroke="#0f0" stroke-width="0.5"/>
    <line x1="0" y1="50" x2="200" y2="50" stroke="#0f0" stroke-width="0.5"/>
    <line x1="0" y1="60" x2="200" y2="60" stroke="#0f0" stroke-width="0.5"/>
    <line x1="0" y1="70" x2="200" y2="70" stroke="#0f0" stroke-width="0.5"/>
    <line x1="0" y1="80" x2="200" y2="80" stroke="#0f0" stroke-width="0.5"/>
    <line x1="0" y1="90" x2="200" y2="90" stroke="#0f0" stroke-width="0.5"/>
    <line x1="0" y1="100" x2="200" y2="100" stroke="#0f0" stroke-width="0.5"/>
    <line x1="0" y1="110" x2="200" y2="110" stroke="#0f0" stroke-width="0.5"/>
    <line x1="0" y1="120" x2="200" y2="120" stroke="#0f0" stroke-width="0.5"/>
    <line x1="0" y1="130" x2="200" y2="130" stroke="#0f0" stroke-width="0.5"/>
  </g>
  <!-- Farmhouse silhouette (green phosphor) -->
  <g opacity="0.7">
    <!-- Sky -->
    <rect x="5" y="18" width="190" height="40" fill="#002a00" opacity="0.3"/>
    <!-- Trees behind house -->
    <ellipse cx="25" cy="48" rx="18" ry="12" fill="#003a00"/>
    <ellipse cx="170" cy="46" rx="16" ry="14" fill="#003a00"/>
    <!-- House body -->
    <rect x="65" y="38" width="55" height="32" fill="#00aa00" opacity="0.3"/>
    <!-- Roof -->
    <polygon points="60,38 92,22 130,38" fill="#006600" opacity="0.5"/>
    <!-- Windows -->
    <rect x="72" y="42" width="8" height="8" fill="#00ff00" opacity="0.3"/>
    <rect x="100" y="42" width="8" height="8" fill="#00ff00" opacity="0.3"/>
    <!-- Door -->
    <rect x="88" y="54" width="8" height="16" fill="#004400" opacity="0.5"/>
    <!-- Ryan figure -->
    <circle cx="84" cy="62" r="2" fill="#00ff00" opacity="0.5"/>
    <rect x="82.5" y="64" width="3" height="5" fill="#00ff00" opacity="0.4"/>
    <!-- Canal -->
    <rect x="5" y="73" width="190" height="12" fill="#004444" opacity="0.4"/>
    <!-- Road -->
    <rect x="5" y="88" width="190" height="8" fill="#002200" opacity="0.3"/>
  </g>
  <!-- Header text -->
  <text x="100" y="14" font-family="monospace" font-size="8" fill="#00ff00" text-anchor="middle" opacity="0.8">SSTV DECODE — 14.230 MHz</text>
  <!-- Overlay data -->
  <text x="10" y="108" font-family="monospace" font-size="6" fill="#00ff00" opacity="0.6">52°27'N 6°36'E</text>
  <text x="10" y="118" font-family="monospace" font-size="6" fill="#00ff00" opacity="0.6">OP. ZERFALL — ACTIVE</text>
  <text x="10" y="128" font-family="monospace" font-size="6" fill="#00ff00" opacity="0.6">SURVEILLANCE — RYAN'S HOUSE</text>
  <!-- Glow dot -->
  <circle cx="185" cy="12" r="3" fill="#00ff00" opacity="0.7">
    <animate attributeName="opacity" values="0.7;0.2;0.7" dur="1.5s" repeatCount="indefinite"/>
  </circle>
</svg>
